<!--?xml version="1.0" encoding="utf-8"?-->
<!-- Generator: Adobe Illustrator 18.1.1, SVG Export Plug-In . SVG Version: 6.00 Build 0)  -->

<svg version="1.1" id="_x31_0" xmlns="http://www.w3.org/2000/svg" xmlns:xlink="http://www.w3.org/1999/xlink" x="0px" y="0px" viewBox="0 0 512 512" style="width: 256px; height: 256px; opacity: 1;" xml:space="preserve">
<style type="text/css">
	.st0{fill:#374149;}
</style>
<g>
	<path class="st0" d="M479.95,124.732c-1.136-2.212-3.858-3.098-6.096-2.013l-22.558,10.914c-2.329,1.127-3.24,3.94-2.052,6.242
		c18.228,35.363,28.52,75.466,28.52,117.941c0,42.479-10.292,82.582-28.52,117.941c-1.188,2.303-0.277,5.116,2.052,6.243
		l22.558,10.91c2.238,1.084,4.96,0.203,6.096-2.014c20.475-39.947,32.05-85.178,32.05-133.08
		C512,209.916,500.426,164.684,479.95,124.732z"></path>
	<path class="st0" d="M409.328,257.843c0,26.19-5.31,51.055-15.13,73.794l25.836,25.841c15.13-29.997,23.534-63.886,23.534-99.634
		c0-37.251-9.112-72.382-25.306-103.35c-1.149-2.212-3.802-3.007-6.105-1.945l-22.566,10.884c-2.298,1.149-3.185,3.983-2.031,6.282
		C401.451,196.081,409.328,225.988,409.328,257.843z"></path>
	<path class="st0" d="M328.41,204.308c0.639,1.305,1.257,2.622,1.849,3.949c1.417,3.171,2.705,6.411,3.854,9.721
		c0.532,1.538,1.029,3.09,1.499,4.649c0.977,3.241,1.828,6.533,2.541,9.886c0.333,1.586,0.63,3.175,0.903,4.774
		c0.596,3.512,1.05,7.073,1.343,10.68c0.113,1.382,0.19,2.765,0.259,4.152c0.086,1.901,0.182,3.798,0.182,5.725
		c0,6.459-0.531,12.832-1.503,18.937l28.402,28.402c4.779-14.953,7.345-30.882,7.345-47.339c0-26.632-6.726-51.674-18.491-73.617
		c-1.154-2.126-3.806-2.921-6.018-1.858l-22.566,10.884c-2.298,1.149-3.27,3.979-2.03,6.282
		C326.832,201.093,327.618,202.704,328.41,204.308z"></path>
	<polygon class="st0" points="263.77,201.214 263.77,142.244 263.857,112.704 263.77,112.756 263.77,112.553 219.239,138.736 
		208.062,145.255 208.092,145.285 207.937,145.38 	"></polygon>
	<polygon class="st0" points="107.861,204.398 0,204.398 0,310.7 0,311.024 0,311.024 0,311.2 107.861,311.2 263.77,403.046 
		263.77,326.331 129.274,191.834 	"></polygon>
	<polygon class="st0" points="49.958,74.978 437.031,462.051 462.055,437.022 74.982,49.949 	"></polygon>
</g>
</svg>
